<svg width="50" height="49" viewBox="0 0 50 49" fill="none" xmlns="http://www.w3.org/2000/svg">
<g id="Component 1/phone" clip-path="url(#clip0_1_68)">
<path id="Vector" d="M40.0625 31.1559L34.7709 30.5638C33.5 30.4209 32.25 30.8496 31.3542 31.7275L27.5209 35.4842C21.625 32.5442 16.7917 27.8279 13.7917 22.0296L17.6459 18.2525C18.5417 17.3746 18.9792 16.1496 18.8334 14.9042L18.2292 9.7592C17.9792 7.69711 16.2084 6.14545 14.0834 6.14545H10.4792C8.12502 6.14545 6.16669 8.06461 6.31252 10.3717C7.41669 27.8075 21.6459 41.7317 39.4167 42.8138C41.7709 42.9567 43.7292 41.0375 43.7292 38.7304V35.1984C43.75 33.1363 42.1667 31.4009 40.0625 31.1559Z" fill="#47CE3B"/>
</g>
<defs>
<clipPath id="clip0_1_68">
<rect width="50" height="49" fill="white"/>
</clipPath>
</defs>
</svg>
