<svg width="127" height="32" viewBox="0 0 127 32" fill="none" xmlns="http://www.w3.org/2000/svg">
<g clip-path="url(#clip0_0_38)">
<path d="M14.3864 27.9362V28.6667H14.351V28.6951H3.37568L3.55241 27.8192C3.58423 27.6631 3.61957 27.5107 3.65139 27.3653C3.6832 27.227 3.72208 27.0851 3.76096 26.9433L3.78217 26.8653L3.80338 26.7908C3.83519 26.6809 3.86701 26.578 3.89882 26.4717V26.4575C3.9271 26.3724 3.95537 26.2873 3.98719 26.1986C4.019 26.1029 4.05435 26.0071 4.08969 25.9114C4.13211 25.7908 4.1816 25.6667 4.23108 25.5461C4.2735 25.4397 4.31592 25.3405 4.3654 25.2305C4.38308 25.188 4.40075 25.1419 4.42549 25.0993C4.47145 24.9965 4.51386 24.9043 4.55628 24.8156C4.57395 24.7766 4.59163 24.7376 4.61284 24.7022C4.65879 24.61 4.70827 24.5142 4.75776 24.422C4.77543 24.3866 4.79664 24.344 4.82492 24.2979C4.82492 24.2979 4.82492 24.2944 4.82492 24.2908V24.2802L4.83552 24.266C4.89915 24.1454 4.95924 24.039 5.01933 23.9397C5.07589 23.844 5.13598 23.7412 5.20314 23.6383L5.22788 23.6029C5.24555 23.5745 5.26676 23.5426 5.28444 23.5142L5.30918 23.4752C5.3728 23.3724 5.44703 23.2624 5.51773 23.1596C5.59903 23.0426 5.68386 22.922 5.7793 22.7943C5.84293 22.7057 5.91008 22.617 5.99845 22.5036L6.00552 22.4965L6.01259 22.4894L6.03027 22.4681C6.05501 22.4326 6.08682 22.3972 6.11157 22.3653C6.18226 22.2766 6.25649 22.1844 6.33779 22.0922C6.35546 22.0674 6.37314 22.0532 6.38374 22.039C6.46504 21.9433 6.5428 21.8546 6.63117 21.7624C6.65592 21.7341 6.68066 21.7057 6.70894 21.6809C6.79377 21.5887 6.88567 21.4929 7.00585 21.3724C7.91428 20.461 8.93582 19.7022 10.0528 19.1135H4.59516C3.16713 20.5639 2.04308 22.2447 1.2513 24.117C0.431238 26.0851 0.00706948 28.1809 0 30.344V31.7553V31.9965H17.6065V17.649V15.0213V4.27662V3.54612H17.649L18.3771 3.53903H28.6243L28.4476 4.41492C27.9527 6.85818 26.7544 9.08867 24.9835 10.8617C24.6089 11.2376 24.2165 11.5851 23.8029 11.9078H28.4688C29.3984 10.7553 30.1584 9.48229 30.7346 8.11704C31.5652 6.14541 31.9894 4.04967 31.9965 1.89009V0.23761H14.3864V27.9397V27.9362Z" fill="#6D62E6"/>
<path d="M3.30145 14.344V3.37589L4.17099 3.54965C6.62057 4.03901 8.85806 5.24113 10.6325 7.02482C10.7527 7.14539 10.8729 7.27305 10.9895 7.40071V3.00709C10.0245 2.30851 8.98177 1.7234 7.886 1.25887C5.92422 0.421986 3.83166 0 1.67547 0H0V16.6809H10.9895V14.344H3.30145Z" fill="#6D62E6" fill-opacity="0.4"/>
<path d="M28.4617 16.6809V28.6206L27.5922 28.4468C25.1461 27.961 22.9122 26.7624 21.1271 24.9752C21.0883 24.9362 21.0529 24.9007 21.014 24.8617V29.1702C21.9048 29.7873 22.8627 30.3156 23.8701 30.7412C25.839 31.578 27.928 32 30.0842 32H31.7561V14.344H21.0176V16.6809H28.4617Z" fill="#6D62E6" fill-opacity="0.4"/>
</g>
<path d="M50.9872 25.324C50.1232 25.324 49.3072 25.156 48.5392 24.82C47.7712 24.484 47.1032 24.008 46.5352 23.392C45.9752 22.776 45.5712 22.048 45.3232 21.208L48.1192 20.452C48.3192 21.14 48.6832 21.672 49.2112 22.048C49.7472 22.416 50.3352 22.596 50.9752 22.588C51.5432 22.588 52.0512 22.456 52.4992 22.192C52.9472 21.928 53.2992 21.572 53.5552 21.124C53.8112 20.668 53.9392 20.16 53.9392 19.6C53.9392 18.744 53.6632 18.028 53.1112 17.452C52.5592 16.876 51.8472 16.588 50.9752 16.588C50.7112 16.588 50.4512 16.624 50.1952 16.696C49.9472 16.768 49.7072 16.868 49.4752 16.996L48.1552 14.716L53.9632 9.74797L54.2152 10.444H45.9952V7.71997H56.5912V10.456L51.9232 14.944L51.8992 14.092C52.9472 14.164 53.8392 14.456 54.5752 14.968C55.3192 15.48 55.8872 16.14 56.2792 16.948C56.6792 17.756 56.8792 18.64 56.8792 19.6C56.8792 20.688 56.6112 21.664 56.0752 22.528C55.5472 23.392 54.8352 24.076 53.9392 24.58C53.0512 25.076 52.0672 25.324 50.9872 25.324Z" fill="white"/>
<path d="M60.2286 25V7.71997H63.1206V22.288H70.7526V25H60.2286Z" fill="white"/>
<path d="M76.4094 25.36C75.4734 25.36 74.6814 25.184 74.0334 24.832C73.3854 24.472 72.8934 23.996 72.5574 23.404C72.2294 22.812 72.0654 22.16 72.0654 21.448C72.0654 20.824 72.1694 20.264 72.3774 19.768C72.5854 19.264 72.9054 18.832 73.3374 18.472C73.7694 18.104 74.3294 17.804 75.0174 17.572C75.5374 17.404 76.1454 17.252 76.8414 17.116C77.5454 16.98 78.3054 16.856 79.1214 16.744C79.9454 16.624 80.8054 16.496 81.7014 16.36L80.6694 16.948C80.6774 16.052 80.4774 15.392 80.0694 14.968C79.6614 14.544 78.9734 14.332 78.0054 14.332C77.4214 14.332 76.8574 14.468 76.3134 14.74C75.7694 15.012 75.3894 15.48 75.1734 16.144L72.5334 15.316C72.8534 14.22 73.4614 13.34 74.3574 12.676C75.2614 12.012 76.4774 11.68 78.0054 11.68C79.1574 11.68 80.1694 11.868 81.0414 12.244C81.9214 12.62 82.5734 13.236 82.9974 14.092C83.2294 14.548 83.3694 15.016 83.4174 15.496C83.4654 15.968 83.4894 16.484 83.4894 17.044V25H80.9574V22.192L81.3774 22.648C80.7934 23.584 80.1094 24.272 79.3254 24.712C78.5494 25.144 77.5774 25.36 76.4094 25.36ZM76.9854 23.056C77.6414 23.056 78.2014 22.94 78.6654 22.708C79.1294 22.476 79.4974 22.192 79.7694 21.856C80.0494 21.52 80.2374 21.204 80.3334 20.908C80.4854 20.54 80.5694 20.12 80.5854 19.648C80.6094 19.168 80.6214 18.78 80.6214 18.484L81.5094 18.748C80.6374 18.884 79.8894 19.004 79.2654 19.108C78.6414 19.212 78.1054 19.312 77.6574 19.408C77.2094 19.496 76.8134 19.596 76.4694 19.708C76.1334 19.828 75.8494 19.968 75.6174 20.128C75.3854 20.288 75.2054 20.472 75.0774 20.68C74.9574 20.888 74.8974 21.132 74.8974 21.412C74.8974 21.732 74.9774 22.016 75.1374 22.264C75.2974 22.504 75.5294 22.696 75.8334 22.84C76.1454 22.984 76.5294 23.056 76.9854 23.056Z" fill="white"/>
<path d="M95.5776 25V18.76C95.5776 18.352 95.5496 17.9 95.4936 17.404C95.4376 16.908 95.3056 16.432 95.0976 15.976C94.8976 15.512 94.5936 15.132 94.1856 14.836C93.7856 14.54 93.2416 14.392 92.5536 14.392C92.1856 14.392 91.8216 14.452 91.4616 14.572C91.1016 14.692 90.7736 14.9 90.4776 15.196C90.1896 15.484 89.9576 15.884 89.7816 16.396C89.6056 16.9 89.5176 17.548 89.5176 18.34L87.8016 17.608C87.8016 16.504 88.0136 15.504 88.4376 14.608C88.8696 13.712 89.5016 13 90.3336 12.472C91.1656 11.936 92.1896 11.668 93.4056 11.668C94.3656 11.668 95.1576 11.828 95.7816 12.148C96.4056 12.468 96.9016 12.876 97.2696 13.372C97.6376 13.868 97.9096 14.396 98.0856 14.956C98.2616 15.516 98.3736 16.048 98.4216 16.552C98.4776 17.048 98.5056 17.452 98.5056 17.764V25H95.5776ZM86.5896 25V12.04H89.1696V16.06H89.5176V25H86.5896Z" fill="white"/>
<path d="M107.054 25.36C105.718 25.36 104.578 25.064 103.634 24.472C102.69 23.872 101.966 23.056 101.462 22.024C100.966 20.992 100.714 19.824 100.706 18.52C100.714 17.192 100.974 16.016 101.486 14.992C102.006 13.96 102.742 13.152 103.694 12.568C104.646 11.976 105.778 11.68 107.09 11.68C108.562 11.68 109.806 12.052 110.822 12.796C111.846 13.532 112.514 14.54 112.826 15.82L109.946 16.6C109.722 15.904 109.35 15.364 108.83 14.98C108.31 14.588 107.718 14.392 107.054 14.392C106.302 14.392 105.682 14.572 105.194 14.932C104.706 15.284 104.346 15.772 104.114 16.396C103.882 17.02 103.766 17.728 103.766 18.52C103.766 19.752 104.042 20.748 104.594 21.508C105.146 22.268 105.966 22.648 107.054 22.648C107.822 22.648 108.426 22.472 108.866 22.12C109.314 21.768 109.65 21.26 109.874 20.596L112.826 21.256C112.426 22.576 111.726 23.592 110.726 24.304C109.726 25.008 108.502 25.36 107.054 25.36Z" fill="white"/>
<path d="M120.771 25.36C119.459 25.36 118.307 25.076 117.315 24.508C116.323 23.94 115.547 23.152 114.987 22.144C114.435 21.136 114.159 19.976 114.159 18.664C114.159 17.248 114.431 16.02 114.975 14.98C115.519 13.932 116.275 13.12 117.243 12.544C118.211 11.968 119.331 11.68 120.603 11.68C121.947 11.68 123.087 11.996 124.023 12.628C124.967 13.252 125.667 14.136 126.123 15.28C126.579 16.424 126.751 17.772 126.639 19.324H123.771V18.268C123.763 16.86 123.515 15.832 123.027 15.184C122.539 14.536 121.771 14.212 120.723 14.212C119.539 14.212 118.659 14.58 118.083 15.316C117.507 16.044 117.219 17.112 117.219 18.52C117.219 19.832 117.507 20.848 118.083 21.568C118.659 22.288 119.499 22.648 120.603 22.648C121.315 22.648 121.927 22.492 122.439 22.18C122.959 21.86 123.359 21.4 123.639 20.8L126.495 21.664C125.999 22.832 125.231 23.74 124.191 24.388C123.159 25.036 122.019 25.36 120.771 25.36ZM116.307 19.324V17.14H125.223V19.324H116.307Z" fill="white"/>
<defs>
<clipPath id="clip0_0_38">
<rect width="32" height="32" fill="white"/>
</clipPath>
</defs>
</svg>
